<svg xmlns="http://www.w3.org/2000/svg" width="97.3" height="100" viewBox="0 0 97.3 100"><path d="M10 8.878v82.244h37.383V8.878H10zm11.214 67.29h-7.477V68.69h7.477v7.48zm0-11.214h-7.477v-7.477h7.477v7.477zm0-11.216h-7.477V46.26h7.477v7.478zm0-11.215h-7.477v-7.477h7.477v7.477zm0-11.214h-7.477v-7.48h7.477v7.474zm0-11.22h-7.477V12.61h7.477v7.477zM32.43 76.17h-7.477v-7.48h7.477v7.48zm0-11.216h-7.477v-7.477h7.477v7.477zm0-11.216h-7.477V46.26h7.477v7.478zm0-11.215h-7.477v-7.477h7.477v7.477zm0-11.214h-7.477v-7.48h7.477v7.474zm0-11.22h-7.477V12.61h7.477v7.477zm11.215 56.08H36.17v-7.48h7.475v7.48zm0-11.218H36.17v-7.477h7.475v7.477zm0-11.216H36.17V46.26h7.475v7.478zm0-11.215H36.17v-7.476h7.475v7.477zm0-11.213H36.17v-7.48h7.475v7.476zm0-11.22H36.17V12.61h7.475v7.478zm8.97 11.22v59.81H90V31.31H52.616zm11.217 44.86h-7.477v-7.48h7.477v7.48zm0-11.217h-7.477v-7.476h7.477v7.477zm0-11.215h-7.477V46.26h7.477v7.478zm0-11.215h-7.477v-7.477h7.477v7.477zm11.215 33.65H67.57v-7.48h7.478v7.48zm0-11.216H67.57v-7.477h7.478v7.477zm0-11.216H67.57V46.26h7.478v7.478zm0-11.215H67.57v-7.477h7.478v7.477zM86.26 76.17h-7.476v-7.48h7.477v7.48zm0-11.216h-7.476v-7.477h7.477v7.477zm0-11.216h-7.476V46.26h7.477v7.478zm0-11.215h-7.476v-7.477h7.477v7.477z"/></svg>