<svg xmlns="http://www.w3.org/2000/svg" width="100" height="100" viewBox="0 0 100 100"><path d="M80.8 60.155l-.097-32.958h-.086L49.827 9.42 19.23 27.196h-.084l.146 32.92.234 2.27v.04l-.235-2.378L10 65.384 50.118 88.58 90 65.42l-9.2-5.265zM26.75 63.94l-5.13-2.963.018-5.897 5.13 2.962-.02 5.897zm.032-11.792l-5.128-2.96.017-5.894 5.13 2.96-.014 5.894zm.034-11.79l-5.128-2.96.017-5.895 5.128 2.962-.017 5.893zM78.23 60.975l-5.13 2.96-.016-5.893 5.128-2.962.018 5.895zm-.035-11.787l-5.128 2.96-.016-5.895 5.13-2.962.02 5.9zm-.05-17.684l.02 5.894-5.13 2.96-.016-5.892 5.122-2.962zm-10.21 23.61l-5.13 2.958-.015-5.896 5.127-2.96.02 5.897zm-15.39 8.883L52.53 58.1l5.13-2.963.018 5.897-5.132 2.963zm5.15 2.93l.016 5.892-5.13 2.96-.013-5.894 5.132-2.964zm-5.182-14.72l-.017-5.893 5.132-2.964.018 5.894-5.133 2.963zM67.886 37.43l.017 5.893-5.13 2.96-.017-5.892 5.13-2.96zm-25.664 5.92l5.132 2.964-.017 5.894-5.132-2.964.017-5.893zm-.034 11.792l5.132 2.963-.017 5.893-5.133-2.963.018-5.893zm-.034 11.785l5.133 2.963-.017 5.898-5.132-2.965.016-5.896zM31.964 37.43l5.13 2.96-.018 5.894-5.13-2.96.02-5.895zm-.033 11.79l5.13 2.96-.014 5.893-5.13-2.96.02-5.893zm5.09 14.82v-.038l-.015 5.833-5.123-2.97-.002-.006.08-5.9 5.19 2.96v.04l-.072.075h-.06zm25.833 8.77l-.025-8.843 5.13-2.96.024 8.84-5.13 2.962z"/></svg>