<svg xmlns="http://www.w3.org/2000/svg" width="100" height="100" viewBox="0 0 100 100"><path d="M27.157 49.202l-2.598 1.585V53.2l2.593-1.583zm0-3.246l-2.598 1.586v2.414l2.593-1.587zm0-3.244l-2.598 1.585v2.418l2.593-1.586zm0-3.242l-2.598 1.584v2.415l2.593-1.59zm0-3.244L24.56 37.81v2.416l2.597-1.583zm32.467 25.208l-3.723 2.27v3.455l3.728-2.27zm0-4.646l-3.723 2.27v3.457l3.728-2.272zm0-4.642L55.9 54.413v3.46l3.724-2.27zm0-4.643L55.9 49.77v3.458l3.724-2.27zm0-4.643L55.9 45.127v3.457l3.724-2.268zm0-4.645l-3.723 2.27v3.455l3.728-2.267zm0-4.645L55.9 35.84v3.457l3.724-2.27zm19.94-9.263L69.13 30.44v27.17l3.48 2.157-7.67 4.794V26.046L50 17.268l-14.938 8.776v37.518l-6.837-4.274 2.645-1.628V30.437l-10.435-6.13L10 30.437V57.61l10.435 6.47h.002l4.9-3.016 9.725 6.076v6.33L50 82.73l14.938-9.185v-5.4l10.55-6.592 4.076 2.526h.002L90 57.66V30.437l-10.435-6.13zM12.69 30.865l7.75-4.55 7.75 4.547-7.75 4.727-7.75-4.73zm11.87 23.4v5.366l-2.98 1.82V37.5l8.042-4.905v23.95l-2.464 1.504v-5.37l-2.6 1.582zM50 33.913l-11.9-7.26 11.9-6.99 11.9 6.99-11.9 7.26zm13.15 38.852l-3.524 2.15v-8.502l-3.722 2.27v8.505l-4.263 2.6v-43.96l11.51-7.02v43.957zm8.668-41.9l7.75-4.55 7.75 4.547-7.75 4.727-7.75-4.73zM88.75 56.543l-2.46 1.503V52.68l-2.598 1.585v5.366l-2.982 1.82V37.5l8.04-4.905v23.95zm-2.46-7.34l-2.598 1.584V53.2l2.597-1.583zm0-3.247l-2.598 1.586v2.414l2.597-1.587zm0-3.244l-2.598 1.585v2.418l2.597-1.586zm0-3.242l-2.598 1.584v2.415l2.597-1.59zm0-3.244l-2.6 1.584v2.416l2.597-1.583z"/></svg>