<svg xmlns="http://www.w3.org/2000/svg" width="100" height="100" viewBox="0 0 100 100"><path d="M46.098 32.42L30 48.515l-4.844-4.845-5.31 5.31 7.5 7.5L30 59.137l2.66-2.66L51.41 37.73l-5.312-5.31zm-32.344 2.657c-.93 0-1.93.37-2.656 1.094S10 37.9 10 38.83v25c0 .93.373 1.932 1.098 2.657.725.725 1.724 1.094 2.656 1.094h24.998c.93 0 1.935-.37 2.656-1.09.725-.727 1.097-1.725 1.097-2.657v-10l-5 5v3.747h-22.5v-22.5H31.49l5-5H13.757l-.003-.003zm38.75 7.498v5H90v-5H52.505zm0 12.5v5h29.998v-5H52.505z"/></svg>