<svg xmlns="http://www.w3.org/2000/svg" width="100" height="100" viewBox="0 0 100 100"><path d="M48.838 73.5h2.322v9.302h-2.322zm-14.295 5.454l-2.01-1.165 4.667-8.05 2.007 1.163zm-5.463-39.72l-8.05-4.66 1.162-2.01 8.05 4.66zm8.178-9.016L32.61 22.16 34.624 21l4.646 8.06zm28.118 48.78l-4.646-8.06 2.012-1.16 4.646 8.06zM17.198 48.84H26.5v2.32h-9.3zm4.684 18.4l-1.155-2.016 8.077-4.625 1.154 2.012zM49.998 10C27.944 10 10 27.944 10 50c0 22.058 17.943 40 39.998 40C72.055 90 90 72.058 90 50c0-22.055-17.945-40-40.002-40zM67.39 22.165l-4.646 8.06-2.01-1.162 4.645-8.06 2.01 1.162zM77.835 32.61l1.16 2.013-8.06 4.647-1.158-2.012 8.058-4.647zm-4.338 16.23H82.8v2.32h-9.303v-2.32zm-23.5 35.588c-18.98 0-34.423-15.444-34.423-34.428 0-18.593 14.82-33.78 33.265-34.396V50c0 .407.21.783.56.994L78.832 68.77c-6.15 9.42-16.776 15.66-28.84 15.66z"/></svg>