<svg xmlns="http://www.w3.org/2000/svg" width="100" height="100" viewBox="0 0 100 100"><path d="M74.823 89.933H12.86c-1.58 0-2.86-1.28-2.86-2.86V25.108c0-1.58 1.282-2.86 2.86-2.86h30.98c1.58 0 2.86 1.28 2.86 2.86 0 1.577-1.28 2.858-2.86 2.858H15.72V84.21h56.244V56.09c0-1.58 1.28-2.86 2.86-2.86 1.58 0 2.858 1.28 2.858 2.86v30.98c0 1.58-1.28 2.863-2.86 2.863zm14.34-70.125l-8.91-8.904c-1.117-1.115-2.93-1.115-4.044 0l-8.06 8.066L37.02 50.1c-.26.258-.467.563-.61.895l-6.664 15.567c-.468 1.078-.22 2.326.6 3.146.554.554 1.278.84 2.022.84.38 0 .762-.076 1.134-.23l15.566-6.662c.334-.143.64-.353.896-.61L81.1 31.918l8.065-8.056c1.114-1.125 1.114-2.936-.002-4.052zM37.81 62.258l2.603-6.063 3.46 3.46-6.063 2.603zm9.457-4.595l-4.86-4.86L70.45 24.755l4.863 4.86-28.046 28.047zM78.01 26.92l-4.862-4.862 5.08-5.08 4.863 4.85-5.08 5.09z"/></svg>