<svg xmlns="http://www.w3.org/2000/svg" width="100" height="100" viewBox="0 0 100 100"><path d="M81.406 92.33h-62.81c-1.986 0-3.596-1.61-3.596-3.6 0-1.984 1.61-3.595 3.596-3.595h62.807c1.987 0 3.597 1.61 3.597 3.595 0 1.988-1.61 3.597-3.594 3.597zm2.544-73.436L73.74 8.68c-1.357-1.346-3.74-1.346-5.087 0l-9.247 9.247L23.694 53.63c-.318.33-.576.71-.76 1.13L15.29 72.615c-.575 1.356-.276 2.918.76 3.956.688.69 1.613 1.06 2.548 1.06.473 0 .957-.09 1.418-.284l17.856-7.655c.42-.175.8-.432 1.12-.76l35.71-35.7 9.248-9.25c.667-.68 1.048-1.59 1.048-2.536.002-.956-.38-1.87-1.047-2.548zM34.4 63.35l-8.96 3.84 3.834-8.957 31.858-31.85L66.25 31.5 34.4 63.35zm35.486-35.477l.012.01c-.094.082-.187.165-.278.256l.266-.27-5.127-5.128-.27.267c.092-.09.163-.185.245-.277l.02.01 6.43-6.43 5.127 5.126-6.43 6.43zm-5.126-5.127l-.268.267c.094-.092.165-.185.247-.277l.02.01zm5.137 5.137c-.094.082-.187.165-.278.256l.262-.27.01.01zm-5.137-5.137l-.268.267c.094-.092.165-.185.247-.277l.02.01zm5.137 5.137c-.094.082-.187.165-.278.256l.262-.27.01.01z"/></svg>