<svg xmlns="http://www.w3.org/2000/svg" width="100" height="100" viewBox="0 0 100 100"><path d="M74.248 89.936H13.725c-2.057 0-3.725-1.667-3.725-3.724V25.686c0-2.057 1.668-3.725 3.725-3.725h30.262c2.057 0 3.725 1.67 3.725 3.73s-1.668 3.725-3.725 3.725H17.45V82.49h53.074V55.95c0-2.058 1.667-3.726 3.725-3.726 2.052 0 3.72 1.668 3.72 3.725v30.26c0 2.054-1.67 3.72-3.726 3.72zm14.662-70.08l-8.697-8.696c-1.452-1.46-3.818-1.46-5.27 0l-7.784 7.784c-.03.018-.06.046-.09.083h-.01L36.66 49.44c-.334.33-.604.73-.79 1.16l-6.52 15.216c-.594 1.395-.277 3.016.793 4.096.717.717 1.667 1.09 2.635 1.09.494 0 .996-.094 1.47-.298l15.206-6.51c.438-.186.83-.456 1.164-.79l38.29-38.29c1.454-1.45 1.454-3.808 0-5.26zm-43.046 37.78l-5.997 2.56 2.57-5.997 26.61-26.608 3.428 3.427-26.61 26.612zm30.56-30.56l-3.428-3.438 4.582-4.58 3.426 3.426-4.58 4.59z"/></svg>