<svg xmlns="http://www.w3.org/2000/svg" width="100" height="100" viewBox="0 0 100 100"><path d="M50 10c-22.09 0-40 17.91-40 40 0 22.092 17.91 40 40 40s40-17.908 40-40c0-22.09-17.91-40-40-40zm0 76.452c-20.132 0-36.452-16.32-36.452-36.452S29.868 13.548 50 13.548 86.45 29.868 86.45 50 70.132 86.452 50 86.452z"/><g><path d="M30.68 55.682c3.14 0 5.685-2.542 5.685-5.682 0-3.138-2.544-5.682-5.684-5.682-3.136 0-5.68 2.544-5.68 5.682 0 3.14 2.544 5.682 5.68 5.682zm19.32 0c3.14 0 5.682-2.542 5.682-5.682 0-3.138-2.542-5.682-5.682-5.682S44.316 46.862 44.316 50c0 3.14 2.544 5.682 5.684 5.682zm19.318 0C72.453 55.682 75 53.14 75 50c0-3.138-2.547-5.682-5.682-5.682-3.14 0-5.684 2.544-5.684 5.682 0 3.14 2.546 5.682 5.684 5.682z"/></g></svg>