<svg xmlns="http://www.w3.org/2000/svg" width="100" height="100" viewBox="0 0 100 100"><path d="M73.297 25.968c-1.423 0-2.79-.46-4.102 0v-5.295h-.005c0-5.525-13.25-10.006-29.596-10.006C23.25 10.667 10 15.15 10 20.673v58.65c0 5.526 13.25 10.01 29.595 10.01 16.347 0 29.6-4.48 29.6-10.01v-5.296c1.313.46 2.68 0 4.103 0C82.664 74.027 90 63.475 90 50s-7.336-24.032-16.703-24.032zm-33.702 1.19c-17.02 0-25.852-4.745-26.34-6.548.49-1.68 9.322-6.424 26.34-6.424 17.02 0 25.854 4.75 26.338 6.55-.48 1.678-9.31 6.423-26.338 6.423zm33.702 41.595c-1.435 0-2.823-1.68-4.102-2.514v-32.2c1.278-.837 2.667-2.8 4.102-2.8 6.195 0 11.427 8.59 11.427 18.758.003 10.164-5.232 18.753-11.427 18.753z"/></svg>