<svg xmlns="http://www.w3.org/2000/svg" width="100" height="100" viewBox="0 0 100 100"><path d="M90 27.406c0-1.56-1.264-2.822-2.823-2.822H12.823c-1.56 0-2.823 1.263-2.823 2.822v45.188c0 1.558 1.265 2.82 2.823 2.82h74.354c1.56 0 2.822-1.263 2.822-2.82V27.406zM39.167 59.584h-22.5c-.745-2.95 1.16-4.578 4.245-5.29 3.02-.694 5.146-2.067 3.255-3.958-5.528-5.53-1.396-12.257 3.728-12.257s9.3 6.727 3.772 12.255c-1.89 1.89.19 3.264 3.21 3.958 3.086.712 5.037 2.34 4.29 5.29zm44.167 0H44.167V56.25h39.167v3.334zm0-8.334H44.167v-3.333h39.167v3.333zm0-8.333H44.167v-3.333h39.167v3.333z"/></svg>