<svg xmlns="http://www.w3.org/2000/svg" width="100" height="100" viewBox="0 0 100 100"><path d="M51.314 37.515v24.97c0 2.626-2.128 4.754-4.755 4.754H44.99v-3.615c0-4.75-2.77-8.826-6.722-10.574 2.02-1.38 3.344-3.694 3.344-6.323 0-4.23-3.427-7.66-7.66-7.66-4.23 0-7.66 3.43-7.66 7.66 0 2.628 1.327 4.942 3.344 6.322-3.952 1.75-6.723 5.823-6.723 10.575v3.613h-1.327c-2.625 0-4.755-2.128-4.755-4.755v-24.97c0-2.625 2.13-4.755 4.755-4.755h24.97c2.628 0 4.756 2.13 4.756 4.755zm30.4 19.348c0-1.37-1.11-2.48-2.478-2.48H60.313c-1.37 0-2.478 1.11-2.478 2.48 0 1.368 1.108 2.477 2.478 2.477h18.923c1.368 0 2.48-1.108 2.48-2.477zm0 7.9c0-1.37-1.11-2.478-2.478-2.478H60.313c-1.37 0-2.478 1.108-2.478 2.477 0 1.368 1.108 2.476 2.478 2.476h18.923c1.368 0 2.48-1.108 2.48-2.476zM90 27.93v44.142c0 3.857-3.13 6.985-6.99 6.985H16.988C13.13 79.057 10 75.93 10 72.072v-44.14c0-3.86 3.13-6.988 6.988-6.988H83.01c3.86 0 6.99 3.127 6.99 6.987zm-2.937 2.225c0-3.47-2.9-6.283-6.48-6.283h-61.17c-3.577 0-6.475 2.812-6.475 6.283v39.69c0 3.47 2.897 6.282 6.475 6.282h61.172c3.58 0 6.48-2.814 6.48-6.283v-39.69z"/></svg>