<svg xmlns="http://www.w3.org/2000/svg" width="100" height="100" viewBox="0 0 100 100"><title>100 - iPad Spotlight</title><desc>Created with Sketch.</desc><path d="M52.08 60.564L55.727 78.3l16.308-22.04C82.86 61.978 90 71.784 90 82.924c0 17.64-80 17.64-80 0 0-11.392 7.468-21.392 18.708-27.046l16.59 22.424 3.65-17.737-6.126-8.602h15.384l-6.126 8.6zM50 47.054c12.462 0 22.565-9.672 22.565-21.604C72.565 13.518 62.46 3.846 50 3.846c-12.462 0-22.564 9.672-22.564 21.604 0 11.93 10.102 21.604 22.565 21.604z"/></svg>