<svg xmlns="http://www.w3.org/2000/svg" width="100" height="100" viewBox="0 0 100 100"><path d="M87.176 24.575H12.823C11.263 24.575 10 25.84 10 27.4v45.2c0 1.56 1.264 2.822 2.823 2.822h74.353c1.56 0 2.824-1.264 2.824-2.822V27.4c0-1.56-1.265-2.825-2.824-2.825zm-.026 48h-74.3v-45.15h74.3v45.15zm-48-12.987c.748-2.952-1.203-4.58-4.29-5.293-3.022-.694-5.104-2.067-3.212-3.96 5.53-5.53 1.353-12.26-3.774-12.26-5.125 0-9.258 6.73-3.728 12.26 1.892 1.893-.235 3.266-3.257 3.96-3.09.712-4.994 2.34-4.247 5.293H39.15zm5.002-3.335h39.18v3.335H44.15zm0-8.336h39.18v3.334H44.15zm0-8.337h39.18v3.335H44.15z"/></svg>