<svg xmlns="http://www.w3.org/2000/svg" width="100" height="100" viewBox="0 0 100 100"><path d="M39.104 15.39c8.617 0 15.612 6.97 15.612 15.612 0 8.62-6.995 15.614-15.612 15.614-8.644 0-15.614-6.995-15.614-15.614 0-8.642 6.972-15.612 15.614-15.612zm0 33.473C9.426 48.863 10 70.795 10 84.61h29.104V48.862zm18.1 23.947c0-1.15.46-2.24 1.263-3.042l1.015-1.014c2.446-2.45 2.446-2.45 3.043-2.45.593 0 .593 0 3.043 2.45l1.942 1.94c-1.726-11.15-7.692-21.83-28.404-21.83V84.61H67.26l-8.793-8.795c-.804-.802-1.262-1.853-1.262-3.005zm6.334-2.03c-.39-.38-.737-.733-1.014-1.013-.316.28-.665.633-1.015 1.014L60.492 71.8c-.56.56-.56 1.47 0 1.992l7.707 7.708c-.01-2.002-.052-4.11-.197-6.25l-4.465-4.467zM89.104 61.455c.57.572.896 1.348.896 2.174 0 .82-.326 1.572-.896 2.144L72.042 82.86c-1.75 1.75-1.75 1.75-2.227 1.75-.47 0-.47 0-2.223-1.75l-7.942-7.94c-.577-.572-.9-1.324-.9-2.146 0-.824.323-1.602.9-2.174l.724-.725c1.748-1.746 1.748-1.746 2.173-1.746s.425 0 2.174 1.745l3.846 3.846c.375.377 1.054.377 1.448 0l14.84-14.836c0-.023.026-.023.05-.053.03-.022.053-.05.053-.07.398-.4 1.05-.4 1.45 0l2.698 2.696zm-1.45 2.87c.4-.4.4-1.022 0-1.42l-1.972-1.978-14.24 14.24c-1.15 1.15-3.175 1.15-4.32 0l-3.847-3.846c-.273-.27-.524-.525-.725-.723-.225.197-.475.45-.725.725l-.725.726c-.398.398-.398 1.047 0 1.422l7.943 7.943c.276.278.553.554.777.778.228-.224.474-.5.777-.776L87.655 64.33zm0-1.42c.4.397.4 1.02 0 1.42l-17.06 17.087c-.3.277-.548.553-.778.777-.224-.227-.494-.5-.773-.78L61.1 73.47c-.4-.376-.4-1.024 0-1.423l.724-.725c.25-.273.498-.527.725-.725.2.197.45.45.723.725l3.847 3.846c1.15 1.15 3.173 1.15 4.318 0l14.24-14.24 1.977 1.976z"/></svg>