<svg xmlns="http://www.w3.org/2000/svg" width="100" height="100" viewBox="0 0 100 100"><path d="M81 85.798H19c-3.635 0-6.56-1.456-8.03-4-1.465-2.538-1.264-5.802.554-8.95l31-53.692c1.82-3.148 4.543-4.953 7.476-4.953 2.934 0 5.66 1.806 7.477 4.954L88.475 72.85c1.82 3.148 2.02 6.41.554 8.95-1.47 2.542-4.396 3.998-8.03 3.998zm-31-65.08c-.424 0-1.157.525-1.833 1.697l-31 53.692c-.677 1.172-.765 2.068-.553 2.437.212.366 1.033.736 2.386.736h61.998c1.354 0 2.173-.37 2.387-.738.212-.366.122-1.263-.554-2.435L51.835 22.415c-.677-1.172-1.408-1.696-1.833-1.696zM46.132 57c.172 1.78.46 3.088.883 4.003.53 1.15 1.516 1.758 2.852 1.758 1.305 0 2.296-.613 2.868-1.78.465-.95.758-2.24.892-3.934l1.15-13.168c.125-1.232.19-2.47.19-3.68 0-2.158-.284-3.79-.87-4.992-.47-.965-1.53-2.113-3.91-2.113-1.53 0-2.788.517-3.74 1.537-.94 1.003-1.416 2.38-1.416 4.1 0 1.107.084 2.935.245 5.436L46.132 57zm3.843 8.577c-1.375 0-2.554.485-3.506 1.436-.955.952-1.438 2.124-1.438 3.48 0 1.542.517 2.772 1.538 3.657.982.854 2.145 1.283 3.46 1.283 1.297 0 2.45-.438 3.424-1.304 1.004-.898 1.515-2.118 1.515-3.64 0-1.36-.495-2.534-1.47-3.488-.973-.944-2.16-1.426-3.526-1.426z"/></svg>