<svg xmlns="http://www.w3.org/2000/svg" width="100" height="100" viewBox="0 0 100 100"><path d="M50 10c-22.09 0-40 17.91-40 40 0 22.092 17.91 40 40 40s40-17.908 40-40c0-22.09-17.91-40-40-40zm0 76.452c-20.132 0-36.452-16.32-36.452-36.452S29.868 13.548 50 13.548 86.45 29.868 86.45 50 70.132 86.452 50 86.452zm2.864-39.82c-4.322-1.556-6.08-2.662-6.08-4.27 0-1.406 1.055-2.864 4.32-2.864 3.618 0 5.98 1.155 7.236 1.758l1.507-5.678c-1.758-.803-4.02-1.558-7.337-1.658V29.5h-4.923v4.773c-5.377 1.005-8.492 4.472-8.492 8.944 0 4.875 3.668 7.387 9.044 9.195 3.767 1.256 5.375 2.463 5.375 4.372 0 1.958-1.96 3.114-4.874 3.114-3.265 0-6.23-1.055-8.34-2.21l-1.507 5.878c1.91 1.056 5.175 2.01 8.543 2.16V70.5h4.974v-5.176c5.78-.954 8.895-4.773 8.895-9.245 0-4.573-2.36-7.337-8.34-9.448z"/></svg>