<svg xmlns="http://www.w3.org/2000/svg" width="100" height="100" viewBox="0 0 100 100"><path d="M89.27 66.812l-7.438-7.534s-.095 0-.095-.095c.754-2.826 1.225-5.745 1.225-8.76 0-3.39-.47-6.592-1.413-9.606l6.686-6.875c.754-.47.94-1.507.472-2.26l-5.56-8.76c-.47-.753-1.507-.942-2.26-.47l-9.324 3.202c-3.578-3.108-7.723-5.463-12.432-6.782l-2.26-9.606c0-.848-.755-1.6-1.696-1.6h-10.36c-.942 0-1.6.752-1.6 1.6l-2.262 9.606c-4.803 1.413-9.136 3.862-12.81 7.064l-.093-.094-10.077-3.39c-.753-.472-1.79-.188-2.26.565l-5.463 8.76c-.47.752-.283 1.788.565 2.26l7.44 7.534s.094 0 .094.096c-.754 2.826-1.224 5.745-1.224 8.76 0 3.106.47 6.12 1.318 9.042l-6.5 6.687c-.752.47-.94 1.506-.47 2.26l5.557 8.76c.47.753 1.508.94 2.26.47l8.667-3.014c3.767 3.39 8.194 5.935 13.186 7.348l2.072 8.76c0 .94.753 1.6 1.6 1.6h10.36c.942 0 1.603-.752 1.603-1.6l2.07-8.854c4.897-1.413 9.325-3.862 12.998-7.16l.095.096 10.078 3.39c.753.47 1.79.282 2.26-.564l5.464-8.76c.47-.567.28-1.603-.473-2.074zM36.06 50.706c0-7.723 6.31-14.033 14.032-14.033 7.724 0 14.033 6.31 14.033 14.033 0 7.724-6.31 14.034-14.033 14.034S36.06 58.524 36.06 50.706z"/></svg>