<svg xmlns="http://www.w3.org/2000/svg" width="100" height="100" viewBox="0 0 100 100"><path d="M90 51.51v30.113C90 86.24 86.242 90 81.62 90H18.374C13.757 90 10 86.24 10 81.622V18.376C10 13.758 13.758 10 18.375 10h30.112c2.685 0 4.865 2.18 4.865 4.866s-2.177 4.866-4.865 4.866H19.73v60.54h60.54v-28.76c0-2.687 2.177-4.866 4.864-4.866 2.686 0 4.864 2.18 4.864 4.865zM81.62 10H65.746c-2.687 0-4.866 2.18-4.866 4.866s2.18 4.866 4.867 4.866h7.64l-27.7 27.698c-1.9 1.9-1.9 4.98 0 6.878.948.95 2.194 1.426 3.44 1.426 1.243 0 2.49-.475 3.438-1.426L80.272 26.6v7.65c0 2.686 2.177 4.866 4.864 4.866 2.686 0 4.863-2.18 4.863-4.866V18.375C90 13.758 86.24 10 81.62 10z"/></svg>