<svg xmlns="http://www.w3.org/2000/svg" width="100" height="100" viewBox="0 0 100 100"><path d="M86.086 21.325h-15.19v-6.933c0-4.583-3.735-8.312-8.31-8.312h-24.45c-4.573 0-8.303 3.73-8.303 8.52v6.725H13.9c-2.153 0-3.9 1.747-3.9 3.9s1.747 3.906 3.9 3.906h4.816v56.475c0 4.58 3.73 8.315 8.31 8.315h45.93c4.574 0 8.31-3.736 8.31-8.316V29.132h4.828c2.154 0 3.906-1.75 3.906-3.906-.008-2.152-1.763-3.9-3.914-3.9zm-50.723-6.932c0-1.522 1.255-2.767 2.772-2.767h24.45c1.522 0 2.77 1.244 2.77 2.976v6.724H35.363v-6.933zm40.36 71.21c0 1.53-1.248 2.77-2.775 2.77H27.023c-1.533 0-2.77-1.238-2.77-2.77v-56.47h51.47v56.47zm-40.36-7.977c1.512 0 2.73-1.215 2.73-2.73v-36.86c0-1.51-1.22-2.733-2.73-2.733s-2.73 1.226-2.73 2.734v36.856c-.002 1.517 1.216 2.732 2.73 2.732zm30.024 0c1.517 0 2.74-1.215 2.74-2.73v-36.86c0-1.51-1.224-2.733-2.74-2.733-1.5 0-2.722 1.226-2.722 2.734v36.856c-.01 1.517 1.215 2.732 2.722 2.732zm-15.023-.228c1.503 0 2.73-1.223 2.73-2.73V37.812c0-1.507-1.227-2.73-2.73-2.73-1.51 0-2.74 1.224-2.74 2.73v36.854c.003 1.518 1.226 2.73 2.74 2.73z"/></svg>